<svg width="150" height="56" viewBox="0 0 150 56" fill="none" xmlns="http://www.w3.org/2000/svg">
<rect width="150" height="56" fill="#F6F9FE"/>
<path d="M66 30C66 30.5304 66.2107 31.0391 66.5858 31.4142C66.9609 31.7893 67.4696 32 68 32C68.5304 32 69.0391 31.7893 69.4142 31.4142C69.7893 31.0391 70 30.5304 70 30C70 29.4696 69.7893 28.9609 69.4142 28.5858C69.0391 28.2107 68.5304 28 68 28C67.4696 28 66.9609 28.2107 66.5858 28.5858C66.2107 28.9609 66 29.4696 66 30Z" stroke="#959DA7" stroke-width="1.5"/>
<path d="M73 30C73 30.5304 73.2107 31.0391 73.5858 31.4142C73.9609 31.7893 74.4696 32 75 32C75.5304 32 76.0391 31.7893 76.4142 31.4142C76.7893 31.0391 77 30.5304 77 30C77 29.4696 76.7893 28.9609 76.4142 28.5858C76.0391 28.2107 75.5304 28 75 28C74.4696 28 73.9609 28.2107 73.5858 28.5858C73.2107 28.9609 73 29.4696 73 30Z" stroke="#959DA7" stroke-width="1.5"/>
<path d="M80 30C80 30.5304 80.2107 31.0391 80.5858 31.4142C80.9609 31.7893 81.4696 32 82 32C82.5304 32 83.0391 31.7893 83.4142 31.4142C83.7893 31.0391 84 30.5304 84 30C84 29.4696 83.7893 28.9609 83.4142 28.5858C83.0391 28.2107 82.5304 28 82 28C81.4696 28 80.9609 28.2107 80.5858 28.5858C80.2107 28.9609 80 29.4696 80 30Z" stroke="#959DA7" stroke-width="1.5"/>
</svg>
