<svg width="113" height="36" viewBox="0 0 113 36" fill="none" xmlns="http://www.w3.org/2000/svg">
<rect x="0.5" y="0.5" width="112" height="35" rx="7.5" fill="#E4EEFB"/>
<rect x="0.5" y="0.5" width="112" height="35" rx="7.5" stroke="#E6E8EA"/>
<path d="M26 28C26 24.2288 26 22.3431 27.1716 21.1716C28.3431 20 30.2288 20 34 20" stroke="#98C3FF" stroke-width="1.5" stroke-linecap="round"/>
<path d="M14 20C17.7712 20 19.6569 20 20.8284 21.1716C22 22.3431 22 24.2288 22 28" stroke="#98C3FF" stroke-width="1.5" stroke-linecap="round"/>
<path d="M14 16C17.7712 16 19.6569 16 20.8284 14.8284C22 13.6569 22 11.7712 22 8" stroke="#98C3FF" stroke-width="1.5" stroke-linecap="round"/>
<path d="M34 16C30.2288 16 28.3431 16 27.1716 14.8284C26 13.6569 26 11.7712 26 8" stroke="#98C3FF" stroke-width="1.5" stroke-linecap="round"/>
<path d="M45.0686 14.6406V13.3182H52.9486V14.6406H49.7718V23.5H48.2405V14.6406H45.0686ZM56.6798 23.6541C55.9639 23.6541 55.3391 23.4901 54.8055 23.1619C54.2719 22.8338 53.8576 22.3748 53.5626 21.7848C53.2676 21.1948 53.1201 20.5054 53.1201 19.7166C53.1201 18.9245 53.2676 18.2318 53.5626 17.6385C53.8576 17.0452 54.2719 16.5845 54.8055 16.2564C55.3391 15.9283 55.9639 15.7642 56.6798 15.7642C57.3957 15.7642 58.0204 15.9283 58.5541 16.2564C59.0877 16.5845 59.502 17.0452 59.797 17.6385C60.0919 18.2318 60.2394 18.9245 60.2394 19.7166C60.2394 20.5054 60.0919 21.1948 59.797 21.7848C59.502 22.3748 59.0877 22.8338 58.5541 23.1619C58.0204 23.4901 57.3957 23.6541 56.6798 23.6541ZM56.6847 22.4062C57.1488 22.4062 57.5332 22.2836 57.8382 22.0384C58.1431 21.7931 58.3685 21.4666 58.5143 21.0589C58.6634 20.6513 58.738 20.2022 58.738 19.7116C58.738 19.2244 58.6634 18.777 58.5143 18.3693C58.3685 17.9583 58.1431 17.6286 57.8382 17.38C57.5332 17.1314 57.1488 17.0071 56.6847 17.0071C56.2174 17.0071 55.8296 17.1314 55.5214 17.38C55.2165 17.6286 54.9894 17.9583 54.8403 18.3693C54.6945 18.777 54.6215 19.2244 54.6215 19.7116C54.6215 20.2022 54.6945 20.6513 54.8403 21.0589C54.9894 21.4666 55.2165 21.7931 55.5214 22.0384C55.8296 22.2836 56.2174 22.4062 56.6847 22.4062ZM61.8987 26.3636V15.8636H63.3504V17.1016H63.4747C63.5609 16.9425 63.6852 16.7585 63.8476 16.5497C64.01 16.3409 64.2354 16.1586 64.5237 16.0028C64.8121 15.8438 65.1932 15.7642 65.6672 15.7642C66.2836 15.7642 66.8338 15.92 67.3177 16.2315C67.8016 16.5431 68.1811 16.9922 68.4562 17.5788C68.7346 18.1655 68.8738 18.8714 68.8738 19.6967C68.8738 20.522 68.7363 21.2296 68.4612 21.8196C68.1861 22.4062 67.8083 22.8587 67.3277 23.1768C66.8471 23.4917 66.2986 23.6491 65.6821 23.6491C65.2181 23.6491 64.8386 23.5713 64.5436 23.4155C64.2519 23.2597 64.0232 23.0774 63.8575 22.8686C63.6918 22.6598 63.5642 22.4742 63.4747 22.3118H63.3852V26.3636H61.8987ZM63.3554 19.6818C63.3554 20.2187 63.4333 20.6894 63.589 21.0938C63.7448 21.4981 63.9702 21.8146 64.2652 22.0433C64.5602 22.2687 64.9214 22.3814 65.349 22.3814C65.7931 22.3814 66.1643 22.2637 66.4626 22.0284C66.7609 21.7898 66.9863 21.4666 67.1388 21.0589C67.2945 20.6513 67.3724 20.1922 67.3724 19.6818C67.3724 19.178 67.2962 18.7256 67.1437 18.3246C66.9946 17.9235 66.7692 17.607 66.4676 17.375C66.1693 17.143 65.7964 17.027 65.349 17.027C64.9181 17.027 64.5535 17.138 64.2552 17.3601C63.9603 17.5821 63.7365 17.892 63.5841 18.2898C63.4316 18.6875 63.3554 19.1515 63.3554 19.6818ZM70.6586 23.5V13.3182H72.1452V17.1016H72.2346C72.3208 16.9425 72.4451 16.7585 72.6075 16.5497C72.7699 16.3409 72.9953 16.1586 73.2836 16.0028C73.572 15.8438 73.9532 15.7642 74.4271 15.7642C75.0436 15.7642 75.5938 15.92 76.0777 16.2315C76.5616 16.5431 76.9411 16.9922 77.2162 17.5788C77.4946 18.1655 77.6338 18.8714 77.6338 19.6967C77.6338 20.522 77.4962 21.2296 77.2211 21.8196C76.9461 22.4062 76.5682 22.8587 76.0876 23.1768C75.607 23.4917 75.0585 23.6491 74.442 23.6491C73.978 23.6491 73.5985 23.5713 73.3035 23.4155C73.0119 23.2597 72.7832 23.0774 72.6175 22.8686C72.4517 22.6598 72.3241 22.4742 72.2346 22.3118H72.1104V23.5H70.6586ZM72.1153 19.6818C72.1153 20.2187 72.1932 20.6894 72.349 21.0938C72.5048 21.4981 72.7301 21.8146 73.0251 22.0433C73.3201 22.2687 73.6814 22.3814 74.1089 22.3814C74.5531 22.3814 74.9243 22.2637 75.2226 22.0284C75.5209 21.7898 75.7462 21.4666 75.8987 21.0589C76.0545 20.6513 76.1324 20.1922 76.1324 19.6818C76.1324 19.178 76.0561 18.7256 75.9037 18.3246C75.7545 17.9235 75.5291 17.607 75.2275 17.375C74.9292 17.143 74.5564 17.027 74.1089 17.027C73.6781 17.027 73.3135 17.138 73.0152 17.3601C72.7202 17.5821 72.4965 17.892 72.344 18.2898C72.1916 18.6875 72.1153 19.1515 72.1153 19.6818ZM79.303 23.5V15.8636H80.7398V17.0767H80.8193C80.9585 16.6657 81.2038 16.3426 81.5551 16.1072C81.9098 15.8686 82.3108 15.7493 82.7583 15.7493C82.8511 15.7493 82.9604 15.7526 83.0864 15.7592C83.2156 15.7659 83.3167 15.7741 83.3896 15.7841V17.206C83.33 17.1894 83.2239 17.1712 83.0715 17.1513C82.919 17.1281 82.7665 17.1165 82.6141 17.1165C82.2628 17.1165 81.9495 17.1911 81.6744 17.3402C81.4027 17.486 81.1872 17.6899 81.0281 17.9517C80.8691 18.2102 80.7895 18.5052 80.7895 18.8366V23.5H79.303ZM84.676 23.5V15.8636H86.1626V23.5H84.676ZM85.4268 14.6854C85.1682 14.6854 84.9462 14.5992 84.7606 14.4268C84.5783 14.2512 84.4871 14.0424 84.4871 13.8004C84.4871 13.5552 84.5783 13.3464 84.7606 13.174C84.9462 12.9983 85.1682 12.9105 85.4268 12.9105C85.6853 12.9105 85.9057 12.9983 86.088 13.174C86.2736 13.3464 86.3664 13.5552 86.3664 13.8004C86.3664 14.0424 86.2736 14.2512 86.088 14.4268C85.9057 14.5992 85.6853 14.6854 85.4268 14.6854ZM91.4536 23.6541C90.7012 23.6541 90.0532 23.4934 89.5097 23.1719C88.9694 22.8471 88.5518 22.3913 88.2568 21.8047C87.9652 21.2147 87.8193 20.5237 87.8193 19.7315C87.8193 18.9493 87.9652 18.2599 88.2568 17.6634C88.5518 17.0668 88.9628 16.6011 89.4898 16.2663C90.0201 15.9316 90.6399 15.7642 91.3492 15.7642C91.78 15.7642 92.1977 15.8355 92.602 15.978C93.0064 16.1205 93.3693 16.3442 93.6908 16.6491C94.0123 16.9541 94.2658 17.3501 94.4514 17.8374C94.637 18.3213 94.7298 18.9096 94.7298 19.6023V20.1293H88.6595V19.0156H93.2732C93.2732 18.6245 93.1936 18.2782 93.0345 17.9766C92.8754 17.6716 92.6517 17.4313 92.3634 17.2557C92.0783 17.08 91.7436 16.9922 91.3591 16.9922C90.9415 16.9922 90.5769 17.0949 90.2654 17.3004C89.9571 17.5026 89.7185 17.7678 89.5494 18.0959C89.3837 18.4207 89.3009 18.7737 89.3009 19.1548V20.0249C89.3009 20.5353 89.3904 20.9695 89.5693 21.3274C89.7516 21.6854 90.0052 21.9588 90.33 22.1477C90.6548 22.3333 91.0343 22.4261 91.4685 22.4261C91.7502 22.4261 92.0071 22.3864 92.2391 22.3068C92.4711 22.224 92.6716 22.1013 92.8406 21.9389C93.0097 21.7765 93.1389 21.576 93.2284 21.3374L94.6354 21.5909C94.5227 22.0052 94.3205 22.3681 94.0289 22.6797C93.7405 22.9879 93.3776 23.2282 92.9401 23.4006C92.5059 23.5696 92.0104 23.6541 91.4536 23.6541ZM100.013 15.8636V17.0568H95.6981V15.8636H100.013ZM96.8813 23.5V14.9787C96.8813 14.5014 96.9857 14.1053 97.1945 13.7905C97.4033 13.4723 97.6801 13.2353 98.0248 13.0795C98.3695 12.9205 98.744 12.8409 99.1483 12.8409C99.4466 12.8409 99.7019 12.8658 99.914 12.9155C100.126 12.9619 100.284 13.005 100.386 13.0447L100.038 14.2479C99.9687 14.228 99.8792 14.2048 99.7698 14.1783C99.6604 14.1484 99.5278 14.1335 99.3721 14.1335C99.0108 14.1335 98.7523 14.223 98.5965 14.402C98.444 14.581 98.3678 14.8395 98.3678 15.1776V23.5H96.8813Z" fill="#262D36"/>
</svg>
